<svg xmlns="http://www.w3.org/2000/svg" width="32.727" height="30" viewBox="0 0 32.727 30">
  <g id="code" transform="translate(0 -1)">
    <path id="Path_1" data-name="Path 1" d="M7.023,20.909A1.023,1.023,0,0,1,6.3,19.163l3.708-3.708L6.3,11.746A1.023,1.023,0,0,1,7.746,10.3l4.432,4.432a1.023,1.023,0,0,1,0,1.447L7.746,20.609a1.015,1.015,0,0,1-.723.3Z" transform="translate(2.182 3.272)" fill="#5221e6"/>
    <path id="Path_2" data-name="Path 2" d="M19.159,18.545H13.023a1.023,1.023,0,0,1,0-2.045h6.136a1.023,1.023,0,0,1,0,2.045Z" transform="translate(4.364 5.636)" fill="#5221e6"/>
    <path id="Path_3" data-name="Path 3" d="M28.977,31H3.75A3.753,3.753,0,0,1,0,27.25V4.75A3.753,3.753,0,0,1,3.75,1H28.977a3.753,3.753,0,0,1,3.75,3.75v22.5A3.753,3.753,0,0,1,28.977,31ZM3.75,3.045a1.707,1.707,0,0,0-1.7,1.7v22.5a1.707,1.707,0,0,0,1.7,1.7H28.977a1.707,1.707,0,0,0,1.7-1.7V4.75a1.707,1.707,0,0,0-1.7-1.7Z" transform="translate(0 0)" fill="#5221e6"/>
    <path id="Path_4" data-name="Path 4" d="M31.7,6.545H1.023a1.023,1.023,0,1,1,0-2.045H31.7a1.023,1.023,0,1,1,0,2.045Z" transform="translate(0 1.273)" fill="#5221e6"/>
  </g>
</svg>
