<svg xmlns="http://www.w3.org/2000/svg" width="33.6" height="17.584" viewBox="0 0 33.6 17.584">
  <path id="motion" d="M15.2,136.985H5.249v2.625H17.533A11.505,11.505,0,0,1,15.2,136.985Zm-1.813-6.168a11.477,11.477,0,0,0,.076,1.312H2.625V129.5H13.467A11.477,11.477,0,0,0,13.391,130.817ZM15.2,124.65H0v-2.624H17.533A11.505,11.505,0,0,0,15.2,124.65Zm18.4,6.168a8.792,8.792,0,1,1-8.792-8.792A8.8,8.8,0,0,1,33.6,130.817Zm-2.624,0a6.175,6.175,0,0,0-6.168-6.168h0a6.168,6.168,0,1,0,6.168,6.168Z" transform="translate(0 -122.025)" fill="#5221e6"/>
</svg>
