<svg id="pen" xmlns="http://www.w3.org/2000/svg" width="32.434" height="32.434" viewBox="0 0 32.434 32.434">
  <g id="Group_5" data-name="Group 5">
    <g id="Group_4" data-name="Group 4">
      <path id="Path_19" data-name="Path 19" d="M31.483,0h-3.8a.95.95,0,0,0-.95.95V1.9H18.9a2.85,2.85,0,0,0-5.374,0H5.7V.95A.95.95,0,0,0,4.751,0H.95A.95.95,0,0,0,0,.95v3.8a.95.95,0,0,0,.95.95h3.8a.95.95,0,0,0,.95-.95V3.788H9.653A12.484,12.484,0,0,0,3.89,13.521a2.849,2.849,0,1,0,1.9.019,10.61,10.61,0,0,1,7.869-9.423,2.849,2.849,0,0,0,5.106,0,10.61,10.61,0,0,1,7.869,9.423,2.852,2.852,0,1,0,1.9-.019A12.461,12.461,0,0,0,22.781,3.8h3.951v.95a.95.95,0,0,0,.95.95h3.8a.95.95,0,0,0,.95-.95V.95A.95.95,0,0,0,31.483,0ZM3.8,3.8H1.9V1.9H3.8ZM4.814,17.167a.95.95,0,1,1,.95-.95A.951.951,0,0,1,4.814,17.167ZM16.217,3.8a.95.95,0,1,1,.95-.95A.951.951,0,0,1,16.217,3.8Zm11.4,11.466a.95.95,0,1,1-.95.95A.951.951,0,0,1,27.619,15.267ZM30.533,3.8h-1.9V1.9h1.9Z" fill="#5221e6"/>
    </g>
  </g>
  <g id="Group_7" data-name="Group 7" transform="translate(7.665 7.666)">
    <g id="Group_6" data-name="Group 6">
      <path id="Path_20" data-name="Path 20" d="M137.944,132.835l-7.6-11.4h0l-.008-.012c-.013-.019-.027-.037-.041-.055a.95.95,0,0,0-1.521.055l-.008.012h0l-7.6,11.4a.95.95,0,0,0,.119,1.2,12.038,12.038,0,0,1,3.431,7.025,4.9,4.9,0,0,0-.425.385,4.816,4.816,0,0,0-1.384,3.383.95.95,0,0,0,.95.95h11.4a.95.95,0,0,0,.95-.95,4.817,4.817,0,0,0-1.384-3.383,4.9,4.9,0,0,0-.425-.385,12.037,12.037,0,0,1,3.431-7.025A.95.95,0,0,0,137.944,132.835Zm-8.392-.423a.95.95,0,1,1-.95.95A.951.951,0,0,1,129.552,132.412Zm-4.589,11.466a2.9,2.9,0,0,1,2.689-1.964h3.8a2.9,2.9,0,0,1,2.689,1.964Zm7.645-3.72a4.668,4.668,0,0,0-1.156-.145h-3.8a4.665,4.665,0,0,0-1.156.145,13.944,13.944,0,0,0-3.335-6.9L128.6,125.1v5.577a2.851,2.851,0,1,0,1.9,0V125.1l5.441,8.162A13.941,13.941,0,0,0,132.608,140.158Z" transform="translate(-121 -121.01)" fill="#5221e6"/>
    </g>
  </g>
</svg>
