<svg id="prototype" xmlns="http://www.w3.org/2000/svg" width="32.934" height="32.934" viewBox="0 0 32.934 32.934">
  <path id="Path_5" data-name="Path 5" d="M85.215,30.965a.965.965,0,0,1-.965.965H60.965a.965.965,0,1,1,0-1.93H84.25A.965.965,0,0,1,85.215,30.965Z" transform="translate(-56.141 -28.07)" fill="#5221e6" opacity="0.78"/>
  <path id="Path_6" data-name="Path 6" d="M268.607,30.965a.965.965,0,0,1-.965.965H256V30h11.643A.965.965,0,0,1,268.607,30.965Z" transform="translate(-239.533 -28.07)" fill="#5221e6" opacity="0.78"/>
  <path id="Path_7" data-name="Path 7" d="M452.965,85.215A.965.965,0,0,1,452,84.25V60.965a.965.965,0,1,1,1.93,0V84.25A.965.965,0,0,1,452.965,85.215Z" transform="translate(-422.926 -56.141)" fill="#5221e6" opacity="0.78"/>
  <path id="Path_8" data-name="Path 8" d="M85.215,452.965a.965.965,0,0,1-.965.965H60.965a.965.965,0,1,1,0-1.93H84.25A.965.965,0,0,1,85.215,452.965Z" transform="translate(-56.141 -422.926)" fill="#5221e6" opacity="0.78"/>
  <path id="Path_9" data-name="Path 9" d="M268.607,452.965a.965.965,0,0,1-.965.965H256V452h11.643A.965.965,0,0,1,268.607,452.965Z" transform="translate(-239.533 -422.926)" fill="#5221e6" opacity="0.78"/>
  <path id="Path_10" data-name="Path 10" d="M30.965,85.215A.965.965,0,0,1,30,84.25V60.965a.965.965,0,0,1,1.93,0V84.25A.965.965,0,0,1,30.965,85.215Z" transform="translate(-28.07 -56.141)" fill="#5221e6" opacity="0.78"/>
  <path id="Path_11" data-name="Path 11" d="M5.789,426.824a.965.965,0,0,1-.965.965H.965A.965.965,0,0,1,0,426.824v-3.859A.965.965,0,0,1,.965,422H4.824a.965.965,0,0,1,.965.965Z" transform="translate(0 -394.856)" fill="#5221e6"/>
  <path id="Path_12" data-name="Path 12" d="M426.824,427.789h-3.859a.965.965,0,0,1-.965-.965v-3.859a.965.965,0,0,1,.965-.965h3.859a.965.965,0,0,1,.965.965v3.859A.965.965,0,0,1,426.824,427.789Z" transform="translate(-394.856 -394.856)" fill="#5221e6"/>
  <path id="Path_13" data-name="Path 13" d="M4.824,5.789H.965A.965.965,0,0,1,0,4.824V.965A.965.965,0,0,1,.965,0H4.824a.965.965,0,0,1,.965.965V4.824A.965.965,0,0,1,4.824,5.789Z" fill="#5221e6"/>
  <path id="Path_14" data-name="Path 14" d="M426.824,5.789h-3.859A.965.965,0,0,1,422,4.824V.965A.965.965,0,0,1,422.965,0h3.859a.965.965,0,0,1,.965.965V4.824A.965.965,0,0,1,426.824,5.789Z" transform="translate(-394.856)" fill="#5221e6"/>
  <path id="Path_15" data-name="Path 15" d="M139.951,124.007c-.317.162.221.113-8,.048-2.064-.016-4.681-.033-8-.048a.964.964,0,0,1-.421-1.3l7.563-14.833a.964.964,0,0,1,1.719,0l7.563,14.833A.964.964,0,0,1,139.951,124.007Z" transform="translate(-115.483 -100.445)" fill="#6b42e9" opacity="0.75"/>
  <path id="Path_16" data-name="Path 16" d="M264,124.007c-.317.162.221.113-8,.048V107.35a.965.965,0,0,1,.859.527l7.563,14.833a.964.964,0,0,1-.421,1.3Z" transform="translate(-239.533 -100.445)" fill="#5221e6" opacity="0.89"/>
  <path id="Path_17" data-name="Path 17" d="M129.684,302c-3.026,0-8.684.865-8.684,3.859s5.62,3.859,8.684,3.859,8.684-.854,8.684-3.859C138.367,303.061,133.263,302,129.684,302Z" transform="translate(-113.217 -282.574)" fill="#6b42e9"/>
  <path id="Path_18" data-name="Path 18" d="M264.684,305.859c0,3.006-5.626,3.859-8.684,3.859V302C259.579,302,264.684,303.061,264.684,305.859Z" transform="translate(-239.533 -282.574)" fill="#5221e6"/>
</svg>
