<svg id="ux-design" xmlns="http://www.w3.org/2000/svg" width="28.217" height="28.217" viewBox="0 0 28.217 28.217">
  <g id="Group_9" data-name="Group 9">
    <g id="Group_8" data-name="Group 8">
      <path id="Path_21" data-name="Path 21" d="M25.737,0H2.48A2.483,2.483,0,0,0,0,2.48V25.737a2.483,2.483,0,0,0,2.48,2.48H25.737a2.483,2.483,0,0,0,2.48-2.48V2.48A2.483,2.483,0,0,0,25.737,0ZM1.653,2.48a.828.828,0,0,1,.827-.827H6.668v4.96H1.653Zm24.91,23.257a.828.828,0,0,1-.827.827H2.48a.828.828,0,0,1-.827-.827V8.267h24.91Zm0-19.123H8.322V1.653H25.737a.828.828,0,0,1,.827.827Z" fill="#5221e6"/>
    </g>
  </g>
  <g id="Group_11" data-name="Group 11" transform="translate(21.548 3.307)">
    <g id="Group_10" data-name="Group 10">
      <path id="Path_22" data-name="Path 22" d="M393.535,60h-1.708a.827.827,0,0,0,0,1.653h1.708a.827.827,0,0,0,0-1.653Z" transform="translate(-391 -60)" fill="#5221e6"/>
    </g>
  </g>
  <g id="Group_13" data-name="Group 13" transform="translate(16.588 3.307)">
    <g id="Group_12" data-name="Group 12">
      <path id="Path_23" data-name="Path 23" d="M303.48,60h-1.653a.827.827,0,0,0,0,1.653h1.653a.827.827,0,0,0,0-1.653Z" transform="translate(-301 -60)" fill="#5221e6"/>
    </g>
  </g>
  <g id="Group_15" data-name="Group 15" transform="translate(11.628 3.307)">
    <g id="Group_14" data-name="Group 14">
      <path id="Path_24" data-name="Path 24" d="M213.48,60h-1.653a.827.827,0,0,0,0,1.653h1.653a.827.827,0,0,0,0-1.653Z" transform="translate(-211 -60)" fill="#5221e6"/>
    </g>
  </g>
  <g id="Group_17" data-name="Group 17" transform="translate(5.015 9.975)">
    <g id="Group_16" data-name="Group 16">
      <path id="Path_25" data-name="Path 25" d="M107.533,191.117v-1.024a2.483,2.483,0,0,0-2.48-2.48H100.92v-1.8a2.48,2.48,0,1,0-1.653,0v1.8H95.133a2.483,2.483,0,0,0-2.48,2.48v1.024a2.48,2.48,0,1,0,1.653,0v-1.024a.828.828,0,0,1,.827-.827h4.133v1.851a2.48,2.48,0,1,0,1.653,0v-1.851h4.133a.828.828,0,0,1,.827.827v1.024a2.48,2.48,0,1,0,1.653,0ZM93.48,194.282a.827.827,0,1,1,.827-.827A.828.828,0,0,1,93.48,194.282Zm6.613,0a.827.827,0,1,1,.827-.827A.828.828,0,0,1,100.093,194.282Zm0-9.975a.827.827,0,1,1,.827-.827A.828.828,0,0,1,100.093,184.307Zm6.613,9.975a.827.827,0,1,1,.827-.827A.828.828,0,0,1,106.707,194.282Z" transform="translate(-91 -181)" fill="#5221e6"/>
    </g>
  </g>
</svg>
